<?xml version="1.0" standalone="no"?><!-- Generator: Gravit.io --><svg xmlns="http://www.w3.org/2000/svg" xmlns:xlink="http://www.w3.org/1999/xlink" style="isolation:isolate" viewBox="0 0 256 256" width="256" height="256"><defs><clipPath id="_clipPath_95bbe2vH9U107E4ut1eMudjzbBJMYvuq"><rect width="256" height="256"/></clipPath></defs><g clip-path="url(#_clipPath_95bbe2vH9U107E4ut1eMudjzbBJMYvuq)"><path d=" M 0 128 C 0 57.309 57.309 0 128 0 C 198.695 0 256 57.309 256 128 C 256 198.695 198.695 256 128 256 C 57.309 256 0 198.695 0 128 Z " fill="rgb(39,179,49)"/><path d=" M 179.755 60.785 C 163.915 60.785 148.509 66.384 136.377 76.551 L 130.609 81.389 L 157.076 124.965 L 164.948 115.75 C 165.379 115.246 165.765 114.827 166.137 114.466 C 169.793 110.876 174.627 108.904 179.755 108.904 C 190.485 108.904 199.218 117.634 199.218 128.368 C 199.218 139.098 190.485 147.828 179.755 147.828 C 174.63 147.828 169.793 145.852 166.133 142.266 C 165.088 141.243 164.158 140.103 163.367 138.874 L 135.468 95.503 L 135.413 95.415 C 135.292 95.235 134.747 94.381 134.173 93.491 L 133.118 91.847 C 120.607 72.398 99.345 60.785 76.247 60.785 C 38.983 60.785 8.667 91.1 8.667 128.368 C 8.667 165.628 38.983 195.947 76.247 195.947 C 92.017 195.947 107.371 190.392 119.474 180.313 L 125.146 175.586 L 100.205 132.374 L 92.149 141.861 C 91.664 142.435 91.237 142.902 90.858 143.27 C 86.933 147.121 81.739 149.236 76.247 149.236 C 64.736 149.236 55.371 139.874 55.371 128.368 C 55.371 116.854 64.736 107.492 76.247 107.492 C 81.735 107.492 86.918 109.611 90.847 113.459 C 92.105 114.695 93.201 116.078 94.11 117.571 L 100.669 128.368 L 121.92 163.34 C 121.935 163.366 121.949 163.392 121.964 163.414 C 121.979 163.439 121.994 163.465 122.008 163.487 L 123.094 165.271 L 123.134 165.271 C 128.961 174.192 136.866 181.671 146.11 186.986 C 156.304 192.846 167.935 195.947 179.755 195.947 C 217.019 195.947 247.334 165.628 247.334 128.368 C 247.334 91.1 217.019 60.785 179.755 60.785 Z " fill="rgb(13,10,9)"/><path d=" M 76.245 69.552 C 97.021 69.552 115.282 80.327 125.744 96.593 C 126.531 97.811 128.043 100.169 128.094 100.246 C 128.149 100.323 128.094 100.246 128.094 100.246 L 133.185 108.159 L 146.182 128.365 L 155.996 143.617 C 157.144 145.404 158.487 147.049 160.002 148.531 C 165.09 153.519 172.061 156.595 179.756 156.595 C 195.342 156.595 207.986 143.955 207.986 128.365 C 207.986 112.775 195.342 100.136 179.756 100.136 C 172.061 100.136 165.086 103.211 159.999 108.207 C 159.395 108.792 158.829 109.417 158.281 110.057 L 142.01 83.27 C 152.226 74.713 165.384 69.552 179.756 69.552 C 212.234 69.552 238.566 95.883 238.566 128.365 C 238.566 160.843 212.234 187.178 179.756 187.178 C 158.439 187.178 139.774 175.837 129.455 158.861 C 128.984 158.081 127.965 156.356 127.951 156.381 L 110.93 128.369 L 111.011 128.233 L 110.93 128.365 L 110.93 128.365 L 101.605 113.018 C 100.31 110.888 98.754 108.935 96.984 107.199 C 91.639 101.957 84.319 98.723 76.245 98.723 C 59.897 98.723 46.606 112.018 46.606 128.365 C 46.606 144.739 59.897 158.004 76.245 158.004 C 84.323 158.004 91.647 154.778 96.995 149.536 C 97.639 148.899 98.246 148.226 98.835 147.538 L 113.862 173.575 C 103.668 182.069 90.554 187.178 76.245 187.178 C 43.766 187.178 17.435 160.843 17.435 128.365 C 17.435 95.883 43.766 69.552 76.245 69.552 Z " fill="rgb(255,255,255)"/></g></svg>