<?xml version="1.0" standalone="no"?><!-- Generator: Gravit.io --><svg xmlns="http://www.w3.org/2000/svg" xmlns:xlink="http://www.w3.org/1999/xlink" style="isolation:isolate" viewBox="0 0 256 256" width="256" height="256"><defs><clipPath id="_clipPath_b4LnZILGZy443GEDM3HGXln0DUL5GsVy"><rect width="256" height="256"/></clipPath></defs><g clip-path="url(#_clipPath_b4LnZILGZy443GEDM3HGXln0DUL5GsVy)"><path d=" M 1 128 C 1 57.861 57.861 1 128 1 C 198.143 1 255 57.861 255 128 C 255 198.143 198.143 255 128 255 C 57.861 255 1 198.143 1 128 Z " fill="rgb(39,179,49)"/><path d=" M 179.35 61.31 C 163.634 61.31 148.349 66.865 136.311 76.953 L 130.588 81.753 L 156.849 124.989 L 164.66 115.846 C 165.087 115.346 165.47 114.93 165.839 114.572 C 169.467 111.01 174.263 109.054 179.35 109.054 C 189.997 109.054 198.662 117.715 198.662 128.365 C 198.662 139.012 189.997 147.673 179.35 147.673 C 174.266 147.673 169.467 145.713 165.835 142.154 C 164.798 141.139 163.875 140.008 163.09 138.789 L 135.41 95.757 L 135.355 95.67 C 135.235 95.491 134.695 94.644 134.125 93.761 L 133.078 92.129 C 120.665 72.833 99.568 61.31 76.651 61.31 C 39.678 61.31 9.6 91.388 9.6 128.365 C 9.6 165.334 39.678 195.416 76.651 195.416 C 92.298 195.416 107.532 189.905 119.54 179.904 L 125.168 175.214 L 100.423 132.34 L 92.429 141.753 C 91.948 142.322 91.524 142.786 91.148 143.151 C 87.254 146.972 82.1 149.071 76.651 149.071 C 65.231 149.071 55.938 139.782 55.938 128.365 C 55.938 116.941 65.231 107.652 76.651 107.652 C 82.097 107.652 87.239 109.754 91.137 113.572 C 92.386 114.799 93.473 116.171 94.375 117.653 L 100.882 128.365 L 121.968 163.064 C 121.982 163.09 121.997 163.115 122.011 163.137 C 122.026 163.163 122.041 163.188 122.055 163.21 L 123.132 164.98 L 123.172 164.98 C 128.953 173.831 136.797 181.251 145.969 186.525 C 156.083 192.339 167.623 195.416 179.35 195.416 C 216.323 195.416 246.402 165.334 246.402 128.365 C 246.402 91.388 216.323 61.31 179.35 61.31 Z " fill="rgb(13,10,9)"/><path d=" M 76.649 70.009 C 97.263 70.009 115.381 80.699 125.761 96.839 C 126.542 98.047 128.042 100.386 128.093 100.463 C 128.148 100.54 128.093 100.463 128.093 100.463 L 133.145 108.314 L 146.04 128.362 L 155.778 143.495 C 156.916 145.269 158.248 146.9 159.752 148.371 C 164.8 153.32 171.716 156.371 179.352 156.371 C 194.816 156.371 207.361 143.83 207.361 128.362 C 207.361 112.894 194.816 100.354 179.352 100.354 C 171.716 100.354 164.796 103.405 159.749 108.361 C 159.15 108.942 158.588 109.562 158.044 110.197 L 141.901 83.619 C 152.036 75.129 165.092 70.009 179.352 70.009 C 211.576 70.009 237.702 96.134 237.702 128.362 C 237.702 160.587 211.576 186.716 179.352 186.716 C 158.201 186.716 139.682 175.464 129.444 158.62 C 128.977 157.846 127.966 156.134 127.951 156.16 L 111.063 128.366 L 111.144 128.231 L 111.063 128.362 L 111.063 128.362 L 101.811 113.135 C 100.526 111.022 98.982 109.084 97.227 107.361 C 91.923 102.16 84.66 98.952 76.649 98.952 C 60.429 98.952 47.242 112.143 47.242 128.362 C 47.242 144.608 60.429 157.769 76.649 157.769 C 84.664 157.769 91.931 154.568 97.238 149.367 C 97.876 148.736 98.479 148.068 99.063 147.385 L 113.972 173.219 C 103.858 181.647 90.847 186.716 76.649 186.716 C 44.424 186.716 18.299 160.587 18.299 128.362 C 18.299 96.134 44.424 70.009 76.649 70.009 Z " fill="rgb(255,255,255)"/></g></svg>